<?xml version="1.0" standalone="no"?>
<!DOCTYPE svg PUBLIC "-//W3C//DTD SVG 20010904//EN"
 "http://www.w3.org/TR/2001/REC-SVG-20010904/DTD/svg10.dtd">
<svg version="1.0" xmlns="http://www.w3.org/2000/svg"
 width="512.000000pt" height="512.000000pt" viewBox="0 0 512.000000 512.000000"
 preserveAspectRatio="xMidYMid meet">
<metadata>
Created by potrace 1.14, written by Peter Selinger 2001-2017
</metadata>
<g transform="translate(0.000000,512.000000) scale(0.100000,-0.100000)"
fill="#000000" stroke="none">
<path d="M3515 4471 c-109 -81 -94 -70 -422 -306 -160 -115 -402 -289 -538
-385 l-247 -175 235 -5 236 -5 -67 -75 c-37 -42 -89 -101 -117 -132 l-50 -57
-310 -5 c-170 -3 -335 -7 -365 -10 -142 -14 -229 -24 -350 -42 -204 -29 -449
-98 -584 -163 -167 -82 -234 -167 -207 -268 7 -28 11 -238 12 -640 0 -329 5
-629 10 -666 62 -432 386 -792 814 -902 106 -28 169 -30 765 -30 562 1 589 2
677 22 171 40 301 102 439 209 129 100 231 224 300 366 22 44 55 90 83 117 25
24 80 75 122 115 41 39 135 127 209 196 73 69 181 171 239 227 l106 102 -40
36 c-22 20 -74 69 -115 108 -42 40 -141 133 -220 207 -79 74 -172 162 -205
195 l-62 60 3 120 c1 66 6 143 11 171 20 109 -52 187 -257 277 -55 24 -168 64
-205 72 -5 1 -28 7 -50 13 -45 12 -185 41 -230 48 -16 2 -39 5 -50 8 -11 2
-45 7 -75 11 -30 3 -63 9 -73 12 -17 4 -17 6 1 21 11 10 135 114 276 232 140
118 254 215 252 217 -1 2 -43 5 -92 9 -49 3 -111 7 -139 9 -27 2 -71 4 -98 4
l-47 1 42 59 c50 69 449 648 461 668 12 19 9 18 -78 -46z m584 -2381 l143
-134 -70 -66 c-206 -195 -287 -268 -291 -264 -3 3 -5 613 -2 660 1 7 18 -5 39
-25 21 -20 102 -97 181 -171z"/>
</g>
</svg>
