<svg version="1.0" xmlns="http://www.w3.org/2000/svg" width="682.667" height="682.667" viewBox="0 0 512 512"><path d="M351.5 64.9c-10.9 8.1-9.4 7-42.2 30.6-16 11.5-40.2 28.9-53.8 38.5l-24.7 17.5 23.5.5 23.6.5-6.7 7.5c-3.7 4.2-8.9 10.1-11.7 13.2l-5 5.7-31 .5c-17 .3-33.5.7-36.5 1-14.2 1.4-22.9 2.4-35 4.2-20.4 2.9-44.9 9.8-58.4 16.3-16.7 8.2-23.4 16.7-20.7 26.8.7 2.8 1.1 23.8 1.2 64 0 32.9.5 62.9 1 66.6 6.2 43.2 38.6 79.2 81.4 90.2 10.6 2.8 16.9 3 76.5 3 56.2-.1 58.9-.2 67.7-2.2 17.1-4 30.1-10.2 43.9-20.9 12.9-10 23.1-22.4 30-36.6 2.2-4.4 5.5-9 8.3-11.7 2.5-2.4 8-7.5 12.2-11.5 4.1-3.9 13.5-12.7 20.9-19.6 7.3-6.9 18.1-17.1 23.9-22.7l10.6-10.2-4-3.6c-2.2-2-7.4-6.9-11.5-10.8-4.2-4-14.1-13.3-22-20.7-7.9-7.4-17.2-16.2-20.5-19.5l-6.2-6 .3-12c.1-6.6.6-14.3 1.1-17.1 2-10.9-5.2-18.7-25.7-27.7-5.5-2.4-16.8-6.4-20.5-7.2-.5-.1-2.8-.7-5-1.3-4.5-1.2-18.5-4.1-23-4.8-1.6-.2-3.9-.5-5-.8-1.1-.2-4.5-.7-7.5-1.1-3-.3-6.3-.9-7.3-1.2-1.7-.4-1.7-.6.1-2.1 1.1-1 13.5-11.4 27.6-23.2 14-11.8 25.4-21.5 25.2-21.7-.1-.2-4.3-.5-9.2-.9-4.9-.3-11.1-.7-13.9-.9-2.7-.2-7.1-.4-9.8-.4l-4.7-.1 4.2-5.9c5-6.9 44.9-64.8 46.1-66.8 1.2-1.9.9-1.8-7.8 4.6zM409.9 303l14.3 13.4-7 6.6c-20.6 19.5-28.7 26.8-29.1 26.4-.3-.3-.5-61.3-.2-66 .1-.7 1.8.5 3.9 2.5 2.1 2 10.2 9.7 18.1 17.1z"/></svg>